# xmcd
#
# Track frame offsets:
#	150
#	17763
#	33987
#	50478
#	75885
#	89624
#	105537
#	122762
#	141049
#	161140
#	178557
#	197976
#	215330
#	224747
#
# Disc length: 3170 seconds
#
# Revision: 1
# Processed by: cddbd v1.5.2PL0 Copyright (c) Steve Scherf et al.
# Submitted via: audiograbber 1.83.01
#
DISCID=c40c600e
DTITLE=Suzie Vinnick - Happy Here
DYEAR=1900
DGENRE=
TTITLE0=believe in yourself
TTITLE1=looking for a kiss
TTITLE2=happy here
TTITLE3=my kind of loneliness
TTITLE4=back on my feet
TTITLE5=prison of shame
TTITLE6=steal a piece
TTITLE7=butterflies and sunflowers
TTITLE8=little one
TTITLE9=i'm still looking for you
TTITLE10=one more day
TTITLE11=fear's talking
TTITLE12=red headed miracle
TTITLE13=star fall
EXTD=
EXTT0=
EXTT1=
EXTT2=
EXTT3=
EXTT4=
EXTT5=
EXTT6=
EXTT7=
EXTT8=
EXTT9=
EXTT10=
EXTT11=
EXTT12=
EXTT13=
PLAYORDER=
